<svg width="656" height="135" viewBox="0 0 656 135" fill="none" xmlns="http://www.w3.org/2000/svg">
<path d="M236.927 1.55975C238.787 0.536531 240.876 0 243 0C245.124 0 247.213 0.536531 249.073 1.55975L299.473 29.271C301.45 30.3584 303.099 31.9566 304.247 33.8987C305.395 35.8408 306.001 38.0555 306 40.3115V94.6885C306.001 96.9445 305.395 99.1592 304.247 101.101C303.099 103.043 301.45 104.642 299.473 105.729L249.073 133.44C247.213 134.463 245.124 135 243 135C240.876 135 238.787 134.463 236.927 133.44L186.527 105.729C184.55 104.642 182.901 103.043 181.753 101.101C180.605 99.1592 179.999 96.9445 180 94.6885V40.3115C179.999 38.0555 180.605 35.8408 181.753 33.8987C182.901 31.9566 184.55 30.3584 186.527 29.271L236.927 1.55975V1.55975Z" fill="#FFC700"/>
<path d="M56.9268 1.55975C58.7874 0.536531 60.8765 0 63 0C65.1235 0 67.2126 0.536531 69.0732 1.55975L119.473 29.271C121.45 30.3584 123.099 31.9566 124.247 33.8987C125.395 35.8408 126.001 38.0555 126 40.3115V94.6885C126.001 96.9445 125.395 99.1592 124.247 101.101C123.099 103.043 121.45 104.642 119.473 105.729L69.0732 133.44C67.2126 134.463 65.1235 135 63 135C60.8765 135 58.7874 134.463 56.9268 133.44L6.5268 105.729C4.54961 104.642 2.90082 103.043 1.75269 101.101C0.604572 99.1592 -0.000741193 96.9445 6.81113e-07 94.6885V40.3115C-0.000741193 38.0555 0.604572 35.8408 1.75269 33.8987C2.90082 31.9566 4.54961 30.3584 6.5268 29.271L56.9268 1.55975V1.55975Z" fill="#FFC700"/>
<path d="M220.5 40.3113V40.3115V94.6885L220.5 94.6887C220.501 96.855 219.919 98.9818 218.817 100.847C217.714 102.712 216.131 104.247 214.232 105.291L163.832 133.002L164.073 133.44L163.832 133.002C162.046 133.985 160.039 134.5 158 134.5C155.961 134.5 153.954 133.985 152.168 133.002L151.927 133.44L152.168 133.002L101.768 105.291C99.869 104.247 98.2857 102.712 97.1831 100.847C96.0806 98.9818 95.4993 96.855 95.5 94.6887V94.6885L95.5 40.3115L95.5 40.3113C95.4993 38.145 96.0806 36.0182 97.1831 34.1532C98.2857 32.2882 99.869 30.7534 101.768 29.7092L152.168 1.99789L151.936 1.57573L152.168 1.99787C153.954 1.01525 155.961 0.5 158 0.5C160.039 0.5 162.046 1.01525 163.832 1.99787L164.056 1.59082L163.832 1.99789L214.232 29.7092C216.131 30.7534 217.714 32.2882 218.817 34.1532C219.919 36.0182 220.501 38.145 220.5 40.3113Z" stroke="#FFC700"/>
<path d="M401.5 40.3113V40.3115V94.6885L401.5 94.6887C401.501 96.855 400.919 98.9818 399.817 100.847C398.714 102.712 397.131 104.247 395.232 105.291L344.832 133.002L345.073 133.44L344.832 133.002C343.046 133.985 341.039 134.5 339 134.5C336.961 134.5 334.954 133.985 333.168 133.002L332.927 133.44L333.168 133.002L282.768 105.291C280.869 104.247 279.286 102.712 278.183 100.847C277.081 98.9818 276.499 96.855 276.5 94.6887V94.6885L276.5 40.3115L276.5 40.3113C276.499 38.145 277.081 36.0182 278.183 34.1532C279.286 32.2882 280.869 30.7534 282.768 29.7092L333.168 1.99789L332.936 1.57573L333.168 1.99787C334.954 1.01525 336.961 0.5 339 0.5C341.039 0.5 343.046 1.01525 344.832 1.99787L345.056 1.59082L344.832 1.99789L395.232 29.7092C397.131 30.7534 398.714 32.2882 399.817 34.1532C400.919 36.0182 401.501 38.145 401.5 40.3113Z" stroke="#FFC700"/>
<path d="M576.5 40.3113V40.3115V94.6885L576.5 94.6887C576.501 96.855 575.919 98.9818 574.817 100.847C573.714 102.712 572.131 104.247 570.232 105.291L519.832 133.002L520.073 133.44L519.832 133.002C518.046 133.985 516.039 134.5 514 134.5C511.961 134.5 509.954 133.985 508.168 133.002L507.927 133.44L508.168 133.002L457.768 105.291C455.869 104.247 454.286 102.712 453.183 100.847C452.081 98.9818 451.499 96.855 451.5 94.6887V94.6885L451.5 40.3115L451.5 40.3113C451.499 38.145 452.081 36.0182 453.183 34.1532C454.286 32.2882 455.869 30.7534 457.768 29.7092L508.168 1.99789L507.936 1.57573L508.168 1.99787C509.954 1.01525 511.961 0.5 514 0.5C516.039 0.5 518.046 1.01525 519.832 1.99787L520.056 1.59082L519.832 1.99789L570.232 29.7092C572.131 30.7534 573.714 32.2882 574.817 34.1532C575.919 36.0182 576.501 38.145 576.5 40.3113Z" stroke="#FFC700"/>
<path d="M411.927 1.55975C413.787 0.536531 415.876 0 418 0C420.124 0 422.213 0.536531 424.073 1.55975L474.473 29.271C476.45 30.3584 478.099 31.9566 479.247 33.8987C480.395 35.8408 481.001 38.0555 481 40.3115V94.6885C481.001 96.9445 480.395 99.1592 479.247 101.101C478.099 103.043 476.45 104.642 474.473 105.729L424.073 133.44C422.213 134.463 420.124 135 418 135C415.876 135 413.787 134.463 411.927 133.44L361.527 105.729C359.55 104.642 357.901 103.043 356.753 101.101C355.605 99.1592 354.999 96.9445 355 94.6885V40.3115C354.999 38.0555 355.605 35.8408 356.753 33.8987C357.901 31.9566 359.55 30.3584 361.527 29.271L411.927 1.55975V1.55975Z" fill="#FFC700"/>
<path d="M586.927 1.55975C588.787 0.536531 590.876 0 593 0C595.124 0 597.213 0.536531 599.073 1.55975L649.473 29.271C651.45 30.3584 653.099 31.9566 654.247 33.8987C655.395 35.8408 656.001 38.0555 656 40.3115V94.6885C656.001 96.9445 655.395 99.1592 654.247 101.101C653.099 103.043 651.45 104.642 649.473 105.729L599.073 133.44C597.213 134.463 595.124 135 593 135C590.876 135 588.787 134.463 586.927 133.44L536.527 105.729C534.55 104.642 532.901 103.043 531.753 101.101C530.605 99.1592 529.999 96.9445 530 94.6885V40.3115C529.999 38.0555 530.605 35.8408 531.753 33.8987C532.901 31.9566 534.55 30.3584 536.527 29.271L586.927 1.55975V1.55975Z" fill="#FFC700"/>
<path d="M54.32 86V100H51.72V94H44.48V100H41.88V86H44.48V91.78H51.72V86H54.32ZM61.9114 89.2C63.4847 89.2 64.6847 89.58 65.5114 90.34C66.3514 91.0867 66.7714 92.22 66.7714 93.74V100H64.4114V98.7C64.1047 99.1667 63.6647 99.5267 63.0914 99.78C62.5314 100.02 61.8514 100.14 61.0514 100.14C60.2514 100.14 59.5514 100.007 58.9514 99.74C58.3514 99.46 57.8847 99.08 57.5514 98.6C57.2314 98.1067 57.0714 97.5533 57.0714 96.94C57.0714 95.98 57.4247 95.2133 58.1314 94.64C58.8514 94.0533 59.9781 93.76 61.5114 93.76H64.2714V93.6C64.2714 92.8533 64.0447 92.28 63.5914 91.88C63.1514 91.48 62.4914 91.28 61.6114 91.28C61.0114 91.28 60.4181 91.3733 59.8314 91.56C59.2581 91.7467 58.7714 92.0067 58.3714 92.34L57.3914 90.52C57.9514 90.0933 58.6247 89.7667 59.4114 89.54C60.1981 89.3133 61.0314 89.2 61.9114 89.2ZM61.5714 98.32C62.1981 98.32 62.7514 98.18 63.2314 97.9C63.7247 97.6067 64.0714 97.1933 64.2714 96.66V95.42H61.6914C60.2514 95.42 59.5314 95.8933 59.5314 96.84C59.5314 97.2933 59.7114 97.6533 60.0714 97.92C60.4314 98.1867 60.9314 98.32 61.5714 98.32ZM72.3598 90.88C73.0798 89.76 74.3465 89.2 76.1598 89.2V91.58C75.9465 91.54 75.7532 91.52 75.5798 91.52C74.6065 91.52 73.8465 91.8067 73.2998 92.38C72.7532 92.94 72.4798 93.7533 72.4798 94.82V100H69.9798V89.32H72.3598V90.88ZM78.2806 89.32H80.7806V100H78.2806V89.32ZM79.5406 87.56C79.0873 87.56 78.7073 87.42 78.4006 87.14C78.094 86.8467 77.9406 86.4867 77.9406 86.06C77.9406 85.6333 78.094 85.28 78.4006 85C78.7073 84.7067 79.0873 84.56 79.5406 84.56C79.994 84.56 80.374 84.7 80.6806 84.98C80.9873 85.2467 81.1406 85.5867 81.1406 86C81.1406 86.44 80.9873 86.8133 80.6806 87.12C80.3873 87.4133 80.0073 87.56 79.5406 87.56Z" fill="black"/>
<path d="M222.06 100.2C221.167 100.2 220.34 100.027 219.58 99.68C218.833 99.32 218.22 98.82 217.74 98.18L219.22 96.4C219.993 97.4667 220.92 98 222 98C223.453 98 224.18 97.14 224.18 95.42V88.18H219.2V86H226.78V95.28C226.78 96.92 226.38 98.1533 225.58 98.98C224.78 99.7933 223.607 100.2 222.06 100.2ZM234.267 89.2C235.84 89.2 237.04 89.58 237.867 90.34C238.707 91.0867 239.127 92.22 239.127 93.74V100H236.767V98.7C236.46 99.1667 236.02 99.5267 235.447 99.78C234.887 100.02 234.207 100.14 233.407 100.14C232.607 100.14 231.907 100.007 231.307 99.74C230.707 99.46 230.24 99.08 229.907 98.6C229.587 98.1067 229.427 97.5533 229.427 96.94C229.427 95.98 229.78 95.2133 230.487 94.64C231.207 94.0533 232.334 93.76 233.867 93.76H236.627V93.6C236.627 92.8533 236.4 92.28 235.947 91.88C235.507 91.48 234.847 91.28 233.967 91.28C233.367 91.28 232.774 91.3733 232.187 91.56C231.614 91.7467 231.127 92.0067 230.727 92.34L229.747 90.52C230.307 90.0933 230.98 89.7667 231.767 89.54C232.554 89.3133 233.387 89.2 234.267 89.2ZM233.927 98.32C234.554 98.32 235.107 98.18 235.587 97.9C236.08 97.6067 236.427 97.1933 236.627 96.66V95.42H234.047C232.607 95.42 231.887 95.8933 231.887 96.84C231.887 97.2933 232.067 97.6533 232.427 97.92C232.787 98.1867 233.287 98.32 233.927 98.32ZM255.815 89.2C257.162 89.2 258.229 89.5933 259.015 90.38C259.802 91.1533 260.195 92.32 260.195 93.88V100H257.695V94.2C257.695 93.2667 257.489 92.5667 257.075 92.1C256.662 91.62 256.069 91.38 255.295 91.38C254.455 91.38 253.782 91.66 253.275 92.22C252.769 92.7667 252.515 93.5533 252.515 94.58V100H250.015V94.2C250.015 93.2667 249.809 92.5667 249.395 92.1C248.982 91.62 248.389 91.38 247.615 91.38C246.762 91.38 246.082 91.6533 245.575 92.2C245.082 92.7467 244.835 93.54 244.835 94.58V100H242.335V89.32H244.715V90.68C245.115 90.2 245.615 89.8333 246.215 89.58C246.815 89.3267 247.482 89.2 248.215 89.2C249.015 89.2 249.722 89.3533 250.335 89.66C250.962 89.9533 251.455 90.3933 251.815 90.98C252.255 90.42 252.822 89.9867 253.515 89.68C254.209 89.36 254.975 89.2 255.815 89.2Z" fill="black"/>
<path d="M401.74 100L401.72 90.72L397.12 98.4H395.96L391.36 90.84V100H388.88V86H391.02L396.58 95.28L402.04 86H404.18L404.2 100H401.74ZM417.782 94.72C417.782 94.8933 417.768 95.14 417.742 95.46H409.362C409.508 96.2467 409.888 96.8733 410.502 97.34C411.128 97.7933 411.902 98.02 412.822 98.02C413.995 98.02 414.962 97.6333 415.722 96.86L417.062 98.4C416.582 98.9733 415.975 99.4067 415.242 99.7C414.508 99.9933 413.682 100.14 412.762 100.14C411.588 100.14 410.555 99.9067 409.662 99.44C408.768 98.9733 408.075 98.3267 407.582 97.5C407.102 96.66 406.862 95.7133 406.862 94.66C406.862 93.62 407.095 92.6867 407.562 91.86C408.042 91.02 408.702 90.3667 409.542 89.9C410.382 89.4333 411.328 89.2 412.382 89.2C413.422 89.2 414.348 89.4333 415.162 89.9C415.988 90.3533 416.628 91 417.082 91.84C417.548 92.6667 417.782 93.6267 417.782 94.72ZM412.382 91.2C411.582 91.2 410.902 91.44 410.342 91.92C409.795 92.3867 409.462 93.0133 409.342 93.8H415.402C415.295 93.0267 414.968 92.4 414.422 91.92C413.875 91.44 413.195 91.2 412.382 91.2ZM426.243 89.2C427.59 89.2 428.67 89.5933 429.483 90.38C430.296 91.1667 430.703 92.3333 430.703 93.88V100H428.203V94.2C428.203 93.2667 427.983 92.5667 427.543 92.1C427.103 91.62 426.476 91.38 425.663 91.38C424.743 91.38 424.016 91.66 423.483 92.22C422.95 92.7667 422.683 93.56 422.683 94.6V100H420.183V89.32H422.563V90.7C422.976 90.2067 423.496 89.8333 424.123 89.58C424.75 89.3267 425.456 89.2 426.243 89.2ZM433.874 89.32H436.374V100H433.874V89.32ZM435.134 87.56C434.681 87.56 434.301 87.42 433.994 87.14C433.688 86.8467 433.534 86.4867 433.534 86.06C433.534 85.6333 433.688 85.28 433.994 85C434.301 84.7067 434.681 84.56 435.134 84.56C435.588 84.56 435.968 84.7 436.274 84.98C436.581 85.2467 436.734 85.5867 436.734 86C436.734 86.44 436.581 86.8133 436.274 87.12C435.981 87.4133 435.601 87.56 435.134 87.56ZM446.076 99.42C445.782 99.66 445.422 99.84 444.996 99.96C444.582 100.08 444.142 100.14 443.676 100.14C442.502 100.14 441.596 99.8333 440.956 99.22C440.316 98.6067 439.996 97.7133 439.996 96.54V91.4H438.236V89.4H439.996V86.96H442.496V89.4H445.356V91.4H442.496V96.48C442.496 97 442.622 97.4 442.876 97.68C443.129 97.9467 443.496 98.08 443.976 98.08C444.536 98.08 445.002 97.9333 445.376 97.64L446.076 99.42Z" fill="black"/>
<path d="M564.88 86H571C572.493 86 573.82 86.2933 574.98 86.88C576.14 87.4533 577.04 88.2733 577.68 89.34C578.32 90.3933 578.64 91.6133 578.64 93C578.64 94.3867 578.32 95.6133 577.68 96.68C577.04 97.7333 576.14 98.5533 574.98 99.14C573.82 99.7133 572.493 100 571 100H564.88V86ZM570.88 97.8C571.907 97.8 572.807 97.6067 573.58 97.22C574.367 96.82 574.967 96.26 575.38 95.54C575.807 94.8067 576.02 93.96 576.02 93C576.02 92.04 575.807 91.2 575.38 90.48C574.967 89.7467 574.367 89.1867 573.58 88.8C572.807 88.4 571.907 88.2 570.88 88.2H567.48V97.8H570.88ZM591.203 94.72C591.203 94.8933 591.19 95.14 591.163 95.46H582.783C582.93 96.2467 583.31 96.8733 583.923 97.34C584.55 97.7933 585.323 98.02 586.243 98.02C587.417 98.02 588.383 97.6333 589.143 96.86L590.483 98.4C590.003 98.9733 589.397 99.4067 588.663 99.7C587.93 99.9933 587.103 100.14 586.183 100.14C585.01 100.14 583.977 99.9067 583.083 99.44C582.19 98.9733 581.497 98.3267 581.003 97.5C580.523 96.66 580.283 95.7133 580.283 94.66C580.283 93.62 580.517 92.6867 580.983 91.86C581.463 91.02 582.123 90.3667 582.963 89.9C583.803 89.4333 584.75 89.2 585.803 89.2C586.843 89.2 587.77 89.4333 588.583 89.9C589.41 90.3533 590.05 91 590.503 91.84C590.97 92.6667 591.203 93.6267 591.203 94.72ZM585.803 91.2C585.003 91.2 584.323 91.44 583.763 91.92C583.217 92.3867 582.883 93.0133 582.763 93.8H588.823C588.717 93.0267 588.39 92.4 587.843 91.92C587.297 91.44 586.617 91.2 585.803 91.2ZM600.025 99.42C599.732 99.66 599.372 99.84 598.945 99.96C598.532 100.08 598.092 100.14 597.625 100.14C596.452 100.14 595.545 99.8333 594.905 99.22C594.265 98.6067 593.945 97.7133 593.945 96.54V91.4H592.185V89.4H593.945V86.96H596.445V89.4H599.305V91.4H596.445V96.48C596.445 97 596.572 97.4 596.825 97.68C597.078 97.9467 597.445 98.08 597.925 98.08C598.485 98.08 598.952 97.9333 599.325 97.64L600.025 99.42ZM602.081 89.32H604.581V100H602.081V89.32ZM603.341 87.56C602.888 87.56 602.508 87.42 602.201 87.14C601.895 86.8467 601.741 86.4867 601.741 86.06C601.741 85.6333 601.895 85.28 602.201 85C602.508 84.7067 602.888 84.56 603.341 84.56C603.795 84.56 604.175 84.7 604.481 84.98C604.788 85.2467 604.941 85.5867 604.941 86C604.941 86.44 604.788 86.8133 604.481 87.12C604.188 87.4133 603.808 87.56 603.341 87.56ZM612.223 95.42L610.363 97.18V100H607.863V85.16H610.363V94.12L615.543 89.32H618.543L614.083 93.8L618.963 100H615.923L612.223 95.42Z" fill="black"/>
</svg>
