<svg width="229" height="245" viewBox="0 0 229 245" fill="none" xmlns="http://www.w3.org/2000/svg">
<path d="M103.462 2.83066C106.844 0.973704 110.641 0 114.5 0C118.359 0 122.156 0.973704 125.538 2.83066L217.138 53.1215C220.731 55.0948 223.728 57.9953 225.815 61.5199C227.901 65.0445 229.001 69.0638 229 73.1578V171.842C229.001 175.936 227.901 179.956 225.815 183.48C223.728 187.005 220.731 189.905 217.138 191.879L125.538 242.169C122.156 244.026 118.359 245 114.5 245C110.641 245 106.844 244.026 103.462 242.169L11.8622 191.879C8.26874 189.905 5.27212 187.005 3.18545 183.48C1.09879 179.956 -0.00134709 175.936 1.2379e-06 171.842V73.1578C-0.00134709 69.0638 1.09879 65.0445 3.18545 61.5199C5.27212 57.9953 8.26874 55.0948 11.8622 53.1215L103.462 2.83066Z" fill="#232323"/>
</svg>
