<svg width="1408" height="164" viewBox="0 0 1408 164" fill="none" xmlns="http://www.w3.org/2000/svg">
<g clip-path="url(#clip0_81_556)">
<path d="M0 79.4729L23.0777 77.8399C46.0466 76.2069 92.202 72.9409 138.466 67.4975C184.731 62.0542 231.104 54.4335 277.368 63.9049C323.632 73.2675 369.788 99.831 415.834 92.7547C461.881 85.6783 508.036 44.9621 554.083 45.3975C600.129 45.7241 646.285 87.0936 692.549 96.0207C738.813 104.839 785.187 81.3236 831.451 60.2034C877.715 39.1921 923.871 20.6847 969.917 26.8901C1015.96 32.9867 1062.12 63.9049 1108.17 86.3315C1154.21 108.867 1200.37 123.02 1246.63 114.528C1292.9 105.928 1339.27 74.7916 1385.53 66.1911C1431.8 57.6995 1477.95 71.8522 1500.92 78.9285L1524 86.0049V222.089H1500.92C1477.95 222.089 1431.8 222.089 1385.53 222.089C1339.27 222.089 1292.9 222.089 1246.63 222.089C1200.37 222.089 1154.21 222.089 1108.17 222.089C1062.12 222.089 1015.96 222.089 969.917 222.089C923.871 222.089 877.715 222.089 831.451 222.089C785.187 222.089 738.813 222.089 692.549 222.089C646.285 222.089 600.129 222.089 554.083 222.089C508.036 222.089 461.881 222.089 415.834 222.089C369.788 222.089 323.632 222.089 277.368 222.089C231.104 222.089 184.731 222.089 138.466 222.089C92.202 222.089 46.0466 222.089 23.0777 222.089H0V79.4729Z" fill="#1A1A1A"/>
</g>
<defs>
<clipPath id="clip0_81_556">
<rect width="1524" height="164" fill="white"/>
</clipPath>
</defs>
</svg>
