<svg width="289" height="228" viewBox="0 0 289 228" fill="none" xmlns="http://www.w3.org/2000/svg">
<g clip-path="url(#clip0_164_40)">
<path d="M162.839 0H126.18V140.649H162.839V0Z" fill="white"/>
<path d="M74.2469 140.649H110.906V103.958H74.2469V140.649Z" fill="white"/>
<path d="M74.2469 36.6909L110.906 36.6909V-0.000209808L74.2469 -0.000209808V36.6909Z" fill="#FA3743"/>
<path d="M178.094 36.6909L214.753 36.6909V-0.000209808L178.094 -0.000209808V36.6909Z" fill="white"/>
<path d="M9.23172 199.032C9.23172 200.993 10.2966 202.471 12.4264 203.466C14.5846 204.433 18.3046 204.916 23.5865 204.916C27.846 204.916 30.9128 204.532 32.787 203.765C34.6612 202.997 35.5983 201.846 35.5983 200.311C35.5983 199.202 35.2576 198.392 34.576 197.88C33.9229 197.34 32.7018 196.942 30.9128 196.686C29.1523 196.431 26.2842 196.175 22.3086 195.919C17.9354 195.663 14.4852 195.223 11.9578 194.597C9.4305 193.972 7.55629 193.034 6.33521 191.783C5.14254 190.504 4.5462 188.77 4.5462 186.581C4.5462 183.483 6.05124 181.265 9.06134 179.929C12.0714 178.593 16.402 177.925 22.053 177.925C27.7325 177.925 32.1623 178.778 35.3428 180.484C38.5232 182.189 40.1277 184.705 40.1561 188.031H34.3205C34.3205 186.723 33.8803 185.686 33 184.918C32.1481 184.122 30.7708 183.539 28.8683 183.17C26.9657 182.8 24.4526 182.616 21.3289 182.616C18.4892 182.616 16.2742 182.772 14.684 183.085C13.0937 183.397 11.972 183.866 11.3189 184.492C10.6942 185.089 10.3818 185.87 10.3818 186.837C10.3818 187.832 10.7084 188.599 11.3615 189.139C12.0146 189.679 13.1789 190.106 14.8544 190.419C16.5298 190.703 19.0855 190.959 22.5216 191.186C27.3207 191.527 30.9412 191.911 33.3834 192.337C35.8539 192.735 37.8133 193.531 39.2616 194.725C40.7098 195.891 41.434 197.653 41.434 200.012C41.434 203.622 39.8579 206.124 36.7058 207.517C33.5821 208.91 29.2233 209.606 23.6291 209.606C17.1545 209.606 12.1992 208.81 8.76317 207.218C5.35551 205.598 3.5523 202.869 3.35352 199.032H9.23172ZM82.5199 178.778V183.554H56.4513V191.399H81.668V196.132H56.4513V204.02H82.5199V208.753H50.9991V178.778H82.5199ZM91.3038 193.744C91.3038 188.77 92.9224 184.89 96.1597 182.104C99.3969 179.318 104.182 177.925 110.514 177.925C114.178 177.925 117.316 178.437 119.928 179.46C122.541 180.484 124.557 181.877 125.977 183.639C127.425 185.373 128.305 187.363 128.618 189.608H122.739C122.342 187.448 121.092 185.771 118.991 184.577C116.918 183.383 114.092 182.786 110.514 182.786C101.626 182.786 97.182 186.439 97.182 193.744C97.182 197.497 98.3321 200.268 100.632 202.059C102.932 203.85 106.226 204.745 110.514 204.745C114.064 204.745 116.875 204.134 118.948 202.912C121.05 201.689 122.313 199.998 122.739 197.838H128.66C128.348 200.083 127.468 202.102 126.019 203.892C124.571 205.655 122.541 207.048 119.928 208.071C117.316 209.094 114.178 209.606 110.514 209.606C104.182 209.606 99.3969 208.213 96.1597 205.427C92.9224 202.613 91.3038 198.719 91.3038 193.744Z" fill="white"/>
<path d="M9.23176 199.032H10.1192V198.143H9.23176V199.032ZM12.4264 203.466L12.0512 204.271L12.0576 204.274L12.064 204.277L12.4264 203.466ZM32.7871 203.765L32.4513 202.942L32.7871 203.765ZM34.5761 197.88L34.0111 198.565L34.0271 198.579L34.0436 198.591L34.5761 197.88ZM30.9129 196.687L30.7854 197.566L30.7874 197.566L30.9129 196.687ZM22.3086 195.919L22.3656 195.033H22.363L22.3604 195.032L22.3086 195.919ZM11.9579 194.597L12.1708 193.735L11.9579 194.597ZM6.33525 191.783L5.68652 192.389L5.69348 192.397L5.7006 192.404L6.33525 191.783ZM9.06138 179.929L8.70168 179.117L9.06138 179.929ZM35.3428 180.484L34.9239 181.267L35.3428 180.484ZM40.1561 188.031V188.919H41.0512L41.0435 188.023L40.1561 188.031ZM34.3205 188.031H33.4331V188.919H34.3205V188.031ZM33 184.918L32.3945 185.568L32.4058 185.578L32.4173 185.588L33 184.918ZM28.8684 183.17L28.6994 184.042L28.8684 183.17ZM14.684 183.085L14.513 182.213L14.684 183.085ZM11.3189 184.492L11.9317 185.134L11.9324 185.134L11.3189 184.492ZM11.3615 189.139L10.7964 189.824L11.3615 189.139ZM14.8544 190.419L14.6918 191.292L14.6989 191.293L14.7061 191.295L14.8544 190.419ZM22.5216 191.186L22.5845 190.3L22.5823 190.3H22.5802L22.5216 191.186ZM33.3834 192.337L33.2311 193.212L33.2367 193.214L33.2426 193.214L33.3834 192.337ZM39.2616 194.725L38.6975 195.411L38.7017 195.414L38.7058 195.417L39.2616 194.725ZM36.7059 207.517L36.3476 206.704L36.345 206.706L36.7059 207.517ZM8.76321 207.218L8.38248 208.021L8.38647 208.023L8.39049 208.025L8.76321 207.218ZM3.35355 199.032V198.143H2.41895L2.46734 199.078L3.35355 199.032ZM8.34435 199.032C8.34435 200.184 8.66077 201.229 9.31068 202.131C9.95387 203.024 10.8879 203.728 12.0512 204.271L12.8017 202.661C11.8352 202.21 11.1719 201.677 10.7502 201.092C10.3352 200.516 10.1192 199.841 10.1192 199.032H8.34435ZM12.064 204.277C14.4088 205.327 18.2967 205.804 23.5865 205.804V204.028C18.3126 204.028 14.7604 203.538 12.7888 202.655L12.064 204.277ZM23.5865 205.804C27.8623 205.804 31.0782 205.424 33.1231 204.587L32.4513 202.942C30.7478 203.64 27.8299 204.028 23.5865 204.028V205.804ZM33.1231 204.587C34.1498 204.166 34.9935 203.612 35.5836 202.887C36.1858 202.147 36.4858 201.275 36.4858 200.311H34.711C34.711 200.881 34.5427 201.353 34.2078 201.764C33.8608 202.191 33.2988 202.595 32.4513 202.942L33.1231 204.587ZM36.4858 200.311C36.4858 199.015 36.0782 197.898 35.1085 197.17L34.0436 198.591C34.4374 198.887 34.711 199.39 34.711 200.311H36.4858ZM35.1414 197.196C34.2838 196.486 32.8439 196.065 31.0386 195.807L30.7874 197.566C32.5602 197.819 33.5624 198.194 34.0111 198.565L35.1414 197.196ZM31.0403 195.807C29.2419 195.546 26.3433 195.289 22.3656 195.033L22.2517 196.806C26.2253 197.061 29.0628 197.315 30.7854 197.566L31.0403 195.807ZM22.3604 195.032C18.0103 194.778 14.6217 194.341 12.1708 193.735L11.7449 195.46C14.3488 196.104 17.8607 196.549 22.2569 196.806L22.3604 195.032ZM12.1708 193.735C9.73039 193.131 8.03225 192.25 6.96993 191.162L5.7006 192.404C7.08044 193.817 9.13068 194.813 11.7449 195.46L12.1708 193.735ZM6.98401 191.177C5.98067 190.101 5.43364 188.604 5.43364 186.581H3.65882C3.65882 188.936 4.3045 190.907 5.68652 192.389L6.98401 191.177ZM5.43364 186.581C5.43364 185.181 5.77136 184.033 6.40902 183.094C7.04911 182.151 8.03275 181.358 9.42107 180.741L8.70168 179.117C7.07994 179.837 5.80597 180.821 4.94104 182.095C4.07363 183.373 3.65882 184.882 3.65882 186.581H5.43364ZM9.42107 180.741C12.2644 179.479 16.4496 178.814 22.0531 178.814V177.037C16.3544 177.037 11.8786 177.707 8.70168 179.117L9.42107 180.741ZM22.0531 178.814C27.6621 178.814 31.9257 179.659 34.9239 181.267L35.762 179.701C32.3993 177.897 27.803 177.037 22.0531 177.037V178.814ZM34.9239 181.267C36.4083 182.063 37.4788 183.023 38.1837 184.128C38.8862 185.229 39.256 186.523 39.269 188.039L41.0435 188.023C41.0281 186.213 40.5815 184.586 39.6796 183.172C38.78 181.761 37.4581 180.61 35.762 179.701L34.9239 181.267ZM40.1561 187.143H34.3205V188.919H40.1561V187.143ZM35.2079 188.031C35.2079 186.501 34.6811 185.206 33.5831 184.248L32.4173 185.588C33.0799 186.166 33.4331 186.946 33.4331 188.031H35.2079ZM33.6056 184.269C32.5759 183.307 31.0066 182.681 29.0374 182.298L28.6994 184.042C30.5354 184.399 31.7207 184.938 32.3945 185.568L33.6056 184.269ZM29.0374 182.298C27.0559 181.913 24.4795 181.727 21.3289 181.727V183.504C24.4258 183.504 26.8756 183.688 28.6994 184.042L29.0374 182.298ZM21.3289 181.727C18.4677 181.727 16.1863 181.884 14.513 182.213L14.8551 183.956C16.3622 183.66 18.5107 183.504 21.3289 183.504V181.727ZM14.513 182.213C12.8707 182.536 11.5445 183.047 10.7056 183.85L11.9324 185.134C12.3997 184.686 13.3168 184.259 14.8551 183.956L14.513 182.213ZM10.7062 183.849C9.88451 184.635 9.49443 185.659 9.49443 186.837H11.2693C11.2693 186.082 11.5039 185.543 11.9317 185.134L10.7062 183.849ZM9.49443 186.837C9.49443 188.046 9.90285 189.086 10.7964 189.824L11.9267 188.455C11.514 188.113 11.2693 187.618 11.2693 186.837H9.49443ZM10.7964 189.824C11.6334 190.517 12.9898 190.974 14.6918 191.292L15.0171 189.545C13.3682 189.238 12.3959 188.842 11.9267 188.455L10.7964 189.824ZM14.7061 191.295C16.428 191.586 19.0209 191.845 22.4631 192.072L22.5802 190.3C19.1503 190.073 16.6316 189.819 15.0027 189.543L14.7061 191.295ZM22.4588 192.072C27.2502 192.413 30.8345 192.794 33.2311 193.212L33.536 191.462C31.0483 191.028 27.3913 190.642 22.5845 190.3L22.4588 192.072ZM33.2426 193.214C35.6078 193.596 37.4049 194.345 38.6975 195.411L39.826 194.039C38.2219 192.717 36.1004 191.875 33.5245 191.46L33.2426 193.214ZM38.7058 195.417C39.8899 196.371 40.5466 197.843 40.5466 200.012H42.3214C42.3214 197.463 41.5301 195.411 39.8177 194.033L38.7058 195.417ZM40.5466 200.012C40.5466 201.687 40.1821 203.042 39.5015 204.122C38.8226 205.2 37.7897 206.067 36.3476 206.704L37.0644 208.329C38.7744 207.574 40.1055 206.494 41.0027 205.07C41.8981 203.649 42.3214 201.948 42.3214 200.012H40.5466ZM36.345 206.706C33.3846 208.025 29.1684 208.718 23.6291 208.718V210.494C29.2783 210.494 33.7801 209.794 37.067 208.328L36.345 206.706ZM23.6291 208.718C17.2044 208.718 12.4001 207.925 9.13595 206.412L8.39049 208.025C11.9984 209.696 17.1047 210.494 23.6291 210.494V208.718ZM9.14396 206.416C7.56322 205.664 6.39465 204.676 5.59521 203.466C4.79524 202.256 4.33242 200.774 4.23978 198.986L2.46734 199.078C2.57349 201.127 3.11167 202.928 4.11492 204.447C5.1187 205.966 6.55556 207.152 8.38248 208.021L9.14396 206.416ZM3.35355 199.92H9.23176V198.143H3.35355V199.92ZM82.5199 178.778H83.4073V177.89H82.5199V178.778ZM82.5199 183.554V184.442H83.4073V183.554H82.5199ZM56.4513 183.554V182.665H55.5639V183.554H56.4513ZM56.4513 191.399H55.5639V192.288H56.4513V191.399ZM81.668 191.399H82.5554V190.511H81.668V191.399ZM81.668 196.132V197.021H82.5554V196.132H81.668ZM56.4513 196.132V195.244H55.5639V196.132H56.4513ZM56.4513 204.02H55.5639V204.909H56.4513V204.02ZM82.5199 204.02H83.4073V203.132H82.5199V204.02ZM82.5199 208.753V209.642H83.4073V208.753H82.5199ZM50.9991 208.753H50.1117V209.642H50.9991V208.753ZM50.9991 178.778V177.89H50.1117V178.778H50.9991ZM81.6325 178.778V183.554H83.4073V178.778H81.6325ZM82.5199 182.665H56.4513V184.442H82.5199V182.665ZM55.5639 183.554V191.399H57.3388V183.554H55.5639ZM56.4513 192.288H81.668V190.511H56.4513V192.288ZM80.7806 191.399V196.132H82.5554V191.399H80.7806ZM81.668 195.244H56.4513V197.021H81.668V195.244ZM55.5639 196.132V204.02H57.3388V196.132H55.5639ZM56.4513 204.909H82.5199V203.132H56.4513V204.909ZM81.6325 204.02V208.753H83.4073V204.02H81.6325ZM82.5199 207.865H50.9991V209.642H82.5199V207.865ZM51.8865 208.753V178.778H50.1117V208.753H51.8865ZM50.9991 179.667H82.5199V177.89H50.9991V179.667ZM96.1597 182.104L96.738 182.778L96.1597 182.104ZM125.977 183.639L125.286 184.197L125.291 184.203L125.296 184.209L125.977 183.639ZM128.618 189.608V190.497H129.637L129.496 189.486L128.618 189.608ZM122.739 189.608L121.867 189.769L122.001 190.497H122.739V189.608ZM118.991 184.577L118.548 185.347L118.551 185.348L118.553 185.35L118.991 184.577ZM100.632 202.059L100.087 202.76L100.632 202.059ZM118.948 202.912L118.502 202.144L118.5 202.145L118.498 202.146L118.948 202.912ZM122.739 197.838V196.95H122.01L121.869 197.666L122.739 197.838ZM128.66 197.838L129.539 197.96L129.68 196.95H128.66V197.838ZM126.019 203.893L126.705 204.457L126.707 204.454L126.709 204.452L126.019 203.893ZM119.928 208.071L119.605 207.244L119.928 208.071ZM96.1597 205.428L95.5779 206.098L95.5793 206.1L95.5811 206.101L96.1597 205.428ZM92.1912 193.744C92.1912 188.982 93.73 185.366 96.738 182.778L95.5811 181.43C92.1146 184.413 90.4164 188.558 90.4164 193.744H92.1912ZM96.738 182.778C99.7522 180.184 104.294 178.814 110.514 178.814V177.037C104.069 177.037 99.0414 178.453 95.5811 181.43L96.738 182.778ZM110.514 178.814C114.099 178.814 117.121 179.315 119.605 180.288L120.251 178.633C117.51 177.559 114.256 177.037 110.514 177.037V178.814ZM119.605 180.288C122.108 181.268 123.984 182.58 125.286 184.197L126.667 183.081C125.13 181.173 122.973 179.699 120.251 178.633L119.605 180.288ZM125.296 184.209C126.637 185.815 127.449 187.649 127.739 189.731L129.496 189.486C129.161 187.076 128.213 184.931 126.657 183.069L125.296 184.209ZM128.618 188.72H122.739V190.497H128.618V188.72ZM123.612 189.448C123.162 187.001 121.732 185.113 119.429 183.805L118.553 185.35C120.452 186.429 121.522 187.895 121.867 189.769L123.612 189.448ZM119.434 183.807C117.175 182.506 114.176 181.898 110.514 181.898V183.675C114.008 183.675 116.661 184.26 118.548 185.347L119.434 183.807ZM110.514 181.898C105.971 181.898 102.399 182.828 99.9519 184.839C97.4713 186.878 96.2946 189.903 96.2946 193.744H98.0694C98.0694 190.28 99.1148 187.826 101.078 186.212C103.075 184.571 106.169 183.675 110.514 183.675V181.898ZM96.2946 193.744C96.2946 197.685 97.5115 200.755 100.087 202.76L101.177 201.358C99.1526 199.782 98.0694 197.308 98.0694 193.744H96.2946ZM100.087 202.76C102.602 204.718 106.119 205.634 110.514 205.634V203.857C106.334 203.857 103.263 202.982 101.177 201.358L100.087 202.76ZM110.514 205.634C114.152 205.634 117.139 205.009 119.399 203.677L118.498 202.146C116.611 203.259 113.976 203.857 110.514 203.857V205.634ZM119.394 203.68C121.69 202.344 123.129 200.449 123.61 198.01L121.869 197.666C121.498 199.548 120.409 201.035 118.502 202.144L119.394 203.68ZM122.739 198.726H128.66V196.95H122.739V198.726ZM127.781 197.715C127.492 199.798 126.678 201.666 125.329 203.334L126.709 204.452C128.257 202.537 129.204 200.369 129.539 197.96L127.781 197.715ZM125.334 203.328C124.002 204.949 122.108 206.263 119.605 207.244L120.251 208.898C122.973 207.833 125.14 206.361 126.705 204.457L125.334 203.328ZM119.605 207.244C117.121 208.217 114.099 208.718 110.514 208.718V210.494C114.256 210.494 117.51 209.972 120.251 208.898L119.605 207.244ZM110.514 208.718C104.294 208.718 99.7522 207.348 96.738 204.754L95.5811 206.101C99.0414 209.079 104.069 210.494 110.514 210.494V208.718ZM96.7415 204.757C93.73 202.139 92.1912 198.507 92.1912 193.744H90.4164C90.4164 198.931 92.1146 203.088 95.5779 206.098L96.7415 204.757ZM175.655 178.778H176.542V177.89H175.655V178.778ZM175.655 183.639V184.527H176.542V183.639H175.655ZM160.065 183.639V182.751H159.177V183.639H160.065ZM160.065 208.753V209.642H160.952V208.753H160.065ZM154.655 208.753H153.768V209.642H154.655V208.753ZM154.655 183.639H155.543V182.751H154.655V183.639ZM139.023 183.639H138.135V184.527H139.023V183.639ZM139.023 178.778V177.89H138.135V178.778H139.023ZM174.767 178.778V183.639H176.542V178.778H174.767ZM175.655 182.751H160.065V184.527H175.655V182.751ZM159.177 183.639V208.753H160.952V183.639H159.177ZM160.065 207.865H154.655V209.642H160.065V207.865ZM155.543 208.753V183.639H153.768V208.753H155.543ZM154.655 182.751H139.023V184.527H154.655V182.751ZM139.91 183.639V178.778H138.135V183.639H139.91ZM139.023 179.667H175.655V177.89H139.023V179.667ZM184.879 178.778V177.89H183.992V178.778H184.879ZM190.332 178.778H191.219V177.89H190.332V178.778ZM190.332 208.753V209.642H191.219V208.753H190.332ZM184.879 208.753H183.992V209.642H184.879V208.753ZM184.879 179.667H190.332V177.89H184.879V179.667ZM189.444 178.778V208.753H191.219V178.778H189.444ZM190.332 207.865H184.879V209.642H190.332V207.865ZM185.767 208.753V178.778H183.992V208.753H185.767ZM204.707 205.385L205.289 204.714L204.707 205.385ZM204.707 182.147L205.285 182.82L205.287 182.819L205.289 182.817L204.707 182.147ZM233.544 182.147L232.963 182.817L232.964 182.819L232.966 182.82L233.544 182.147ZM233.544 205.385L232.963 204.714L233.544 205.385ZM209.137 185.43L208.598 184.725L208.595 184.726L208.593 184.728L209.137 185.43ZM219.147 208.718C212.87 208.718 208.302 207.333 205.289 204.714L204.125 206.056C207.587 209.065 212.646 210.494 219.147 210.494V208.718ZM205.289 204.714C202.276 202.095 200.739 198.477 200.739 193.744H198.964C198.964 198.904 200.663 203.046 204.125 206.056L205.289 204.714ZM200.739 193.744C200.739 189.012 202.276 185.41 205.285 182.82L204.129 181.473C200.663 184.455 198.964 188.585 198.964 193.744H200.739ZM205.289 182.817C208.302 180.198 212.87 178.814 219.147 178.814V177.037C212.646 177.037 207.587 178.467 204.125 181.476L205.289 182.817ZM219.147 178.814C225.395 178.814 229.949 180.198 232.963 182.817L234.126 181.476C230.665 178.467 225.621 177.037 219.147 177.037V178.814ZM232.966 182.82C235.975 185.41 237.513 189.012 237.513 193.744H239.288C239.288 188.585 237.588 184.455 234.123 181.473L232.966 182.82ZM237.513 193.744C237.513 198.477 235.975 202.095 232.963 204.714L234.126 206.056C237.588 203.046 239.288 198.904 239.288 193.744H237.513ZM232.963 204.714C229.949 207.334 225.395 208.718 219.147 208.718V210.494C225.621 210.494 230.665 209.064 234.126 206.056L232.963 204.714ZM219.147 205.634C223.718 205.634 227.311 204.7 229.773 202.682C232.268 200.637 233.452 197.6 233.452 193.744H231.677C231.677 197.223 230.625 199.687 228.648 201.308C226.637 202.957 223.521 203.857 219.147 203.857V205.634ZM233.452 193.744C233.452 189.902 232.267 186.876 229.771 184.837C227.31 182.827 223.718 181.898 219.147 181.898V183.675C223.522 183.675 226.638 184.571 228.649 186.214C230.626 187.829 231.677 190.282 231.677 193.744H233.452ZM219.147 181.898C214.673 181.898 211.114 182.797 208.598 184.725L209.676 186.135C211.761 184.538 214.875 183.675 219.147 183.675V181.898ZM208.593 184.728C206.04 186.708 204.842 189.783 204.842 193.744H206.617C206.617 190.145 207.69 187.676 209.681 186.132L208.593 184.728ZM204.842 193.744C204.842 197.6 206.026 200.637 208.522 202.682C210.983 204.7 214.576 205.634 219.147 205.634V203.857C214.773 203.857 211.657 202.957 209.646 201.308C207.669 199.687 206.617 197.223 206.617 193.744H204.842ZM279.774 203.551L279.137 204.17L280.661 205.742V203.551H279.774ZM279.774 178.778V177.89H278.886V178.778H279.774ZM285.226 178.778H286.113V177.89H285.226V178.778ZM285.226 208.753V209.642H286.113V208.753H285.226ZM277.431 208.753L276.794 209.372L277.055 209.642H277.431V208.753ZM253.407 183.98L254.043 183.361L252.519 181.79V183.98H253.407ZM253.407 208.753V209.642H254.294V208.753H253.407ZM247.955 208.753H247.067V209.642H247.955V208.753ZM247.955 178.778V177.89H247.067V178.778H247.955ZM255.75 178.778L256.386 178.159L256.125 177.89H255.75V178.778ZM280.661 203.551V178.778H278.886V203.551H280.661ZM279.774 179.667H285.226V177.89H279.774V179.667ZM284.338 178.778V208.753H286.113V178.778H284.338ZM285.226 207.865H277.431V209.642H285.226V207.865ZM278.067 208.135L254.043 183.361L252.77 184.599L276.794 209.372L278.067 208.135ZM252.519 183.98V208.753H254.294V183.98H252.519ZM253.407 207.865H247.955V209.642H253.407V207.865ZM248.842 208.753V178.778H247.067V208.753H248.842ZM247.955 179.667H255.75V177.89H247.955V179.667ZM255.113 179.397L279.137 204.17L280.41 202.933L256.386 178.159L255.113 179.397Z" fill="white"/>
<path d="M4.30831 224.011C4.30831 224.338 4.4858 224.584 4.84076 224.75C5.20046 224.911 5.82046 224.992 6.70077 224.992C7.4107 224.992 7.92185 224.928 8.23422 224.8C8.54659 224.672 8.70277 224.48 8.70277 224.224C8.70277 224.039 8.64598 223.904 8.53239 223.819C8.42353 223.729 8.22002 223.663 7.92185 223.62C7.62841 223.577 7.15039 223.535 6.48779 223.492C5.75894 223.449 5.18389 223.376 4.76267 223.272C4.34144 223.168 4.02908 223.011 3.82556 222.803C3.62678 222.59 3.52739 222.301 3.52739 221.936C3.52739 221.419 3.77823 221.05 4.27992 220.827C4.7816 220.604 5.50336 220.493 6.4452 220.493C7.39177 220.493 8.1301 220.635 8.66018 220.92C9.19026 221.204 9.45766 221.623 9.4624 222.177H8.48979C8.48979 221.959 8.41643 221.787 8.26972 221.659C8.12773 221.526 7.89819 221.429 7.58108 221.367C7.26398 221.306 6.84513 221.275 6.32451 221.275C5.85123 221.275 5.48206 221.301 5.21702 221.353C4.95198 221.405 4.76504 221.483 4.65618 221.588C4.55206 221.687 4.5 221.817 4.5 221.978C4.5 222.144 4.55442 222.272 4.66328 222.362C4.77213 222.452 4.96618 222.523 5.24542 222.575C5.52466 222.623 5.95062 222.665 6.52329 222.703C7.32314 222.76 7.92658 222.824 8.33361 222.895C8.74537 222.961 9.07193 223.094 9.31331 223.293C9.55469 223.487 9.67537 223.781 9.67537 224.174C9.67537 224.776 9.4127 225.193 8.88735 225.425C8.36674 225.657 7.64025 225.773 6.70787 225.773C5.62878 225.773 4.8029 225.641 4.23022 225.375C3.66228 225.105 3.36174 224.65 3.32861 224.011H4.30831ZM17.3641 225.773C16.2992 225.773 15.497 225.539 14.9574 225.07C14.4179 224.601 14.1481 223.954 14.1481 223.13C14.1481 222.305 14.4179 221.661 14.9574 221.197C15.497 220.728 16.2992 220.493 17.3641 220.493C18.4242 220.493 19.2241 220.728 19.7636 221.197C20.3032 221.661 20.573 222.305 20.573 223.13C20.573 223.954 20.3032 224.601 19.7636 225.07C19.2241 225.539 18.4242 225.773 17.3641 225.773ZM17.3641 224.963C18.8549 224.963 19.6004 224.352 19.6004 223.13C19.6004 221.912 18.8549 221.303 17.3641 221.303C16.6352 221.303 16.0791 221.45 15.6957 221.744C15.3171 222.038 15.1278 222.5 15.1278 223.13C15.1278 224.352 15.8732 224.963 17.3641 224.963ZM30.507 220.635V221.445H26.1622V223.123H30.0811V223.933H26.1622V225.631H25.2535V220.635H30.507ZM41.1852 220.635V221.445H38.5869V225.631H37.6853V221.445H35.0798V220.635H41.1852ZM53.3377 224.821L55.1693 220.635H56.1419L53.927 225.631H52.7414L50.9027 221.289L48.9504 225.631H47.7577L45.6705 220.635H46.6431L48.3611 224.821L50.2353 220.635H51.5842L53.3377 224.821ZM65.8248 225.631H64.7954L64.1777 224.551H60.55L59.9324 225.631H58.8959L61.7853 220.635H62.9354L65.8248 225.631ZM62.3603 221.389L60.9973 223.769H63.7234L62.3603 221.389ZM75.155 223.449C75.4011 223.487 75.5881 223.585 75.7158 223.741C75.8436 223.897 75.9075 224.103 75.9075 224.359V225.631H75.0059V224.579C75.0059 224.404 74.987 224.274 74.9491 224.189C74.9113 224.099 74.8426 224.037 74.7432 224.004C74.6486 223.966 74.5042 223.947 74.3102 223.947H71.222V225.631H70.3133V220.635H74.0404C74.651 220.635 75.1242 220.758 75.4603 221.005C75.801 221.246 75.9714 221.625 75.9714 222.142C75.9714 222.786 75.6993 223.222 75.155 223.449ZM71.222 221.438V223.151H73.8061C74.0475 223.151 74.2463 223.137 74.4025 223.108C74.5634 223.08 74.703 223.004 74.8213 222.881C74.9397 222.753 74.9988 222.556 74.9988 222.291C74.9988 222.031 74.9397 221.839 74.8213 221.715C74.703 221.588 74.5634 221.509 74.4025 221.481C74.2463 221.453 74.0475 221.438 73.8061 221.438H71.222ZM86.0394 220.635V221.431H81.6946V222.739H85.8974V223.528H81.6946V224.842H86.0394V225.631H80.7859V220.635H86.0394ZM102.749 220.635V221.431H98.4043V222.739H102.607V223.528H98.4043V224.842H102.749V225.631H97.4956V220.635H102.749ZM112.814 224.764V220.635H113.723V225.631H112.424L108.42 221.502V225.631H107.511V220.635H108.81L112.814 224.764ZM118.398 223.137C118.398 222.601 118.523 222.135 118.774 221.737C119.03 221.339 119.397 221.033 119.875 220.82C120.357 220.602 120.932 220.493 121.6 220.493C122.206 220.493 122.726 220.578 123.162 220.749C123.602 220.92 123.942 221.149 124.184 221.438C124.43 221.727 124.577 222.054 124.624 222.419H123.644C123.573 222.068 123.363 221.796 123.012 221.602C122.667 221.403 122.196 221.303 121.6 221.303C121.003 221.303 120.54 221.405 120.208 221.609C119.882 221.813 119.662 222.052 119.548 222.327C119.434 222.601 119.378 222.874 119.378 223.144C119.378 223.409 119.439 223.682 119.562 223.961C119.69 224.236 119.924 224.475 120.265 224.679C120.606 224.883 121.079 224.984 121.685 224.984C122.116 224.984 122.478 224.956 122.771 224.899C123.065 224.838 123.375 224.736 123.701 224.594V223.783H121.536V223.03H124.624V224.984C124.094 225.273 123.604 225.477 123.154 225.596C122.71 225.714 122.217 225.773 121.678 225.773C121.006 225.773 120.421 225.667 119.924 225.454C119.432 225.236 119.053 224.93 118.788 224.537C118.528 224.139 118.398 223.672 118.398 223.137ZM129.386 220.635H130.294V225.631H129.386V220.635ZM140.482 224.764V220.635H141.39V225.631H140.091L136.087 221.502V225.631H135.179V220.635H136.478L140.482 224.764ZM151.529 220.635V221.431H147.184V222.739H151.387V223.528H147.184V224.842H151.529V225.631H146.276V220.635H151.529ZM161.544 220.635V221.431H157.199V222.739H161.402V223.528H157.199V224.842H161.544V225.631H156.291V220.635H161.544ZM171.148 223.449C171.394 223.487 171.581 223.585 171.709 223.741C171.836 223.897 171.9 224.103 171.9 224.359V225.631H170.999V224.579C170.999 224.404 170.98 224.274 170.942 224.189C170.904 224.099 170.835 224.037 170.736 224.004C170.641 223.966 170.497 223.947 170.303 223.947H167.215V225.631H166.306V220.635H170.033C170.644 220.635 171.117 220.758 171.453 221.005C171.794 221.246 171.964 221.625 171.964 222.142C171.964 222.786 171.692 223.222 171.148 223.449ZM167.215 221.438V223.151H169.799C170.04 223.151 170.239 223.137 170.395 223.108C170.556 223.08 170.696 223.004 170.814 222.881C170.932 222.753 170.992 222.556 170.992 222.291C170.992 222.031 170.932 221.839 170.814 221.715C170.696 221.588 170.556 221.509 170.395 221.481C170.239 221.453 170.04 221.438 169.799 221.438H167.215ZM176.779 220.635H177.688V225.631H176.779V220.635ZM187.875 224.764V220.635H188.784V225.631H187.485L183.481 221.502V225.631H182.572V220.635H183.871L187.875 224.764ZM193.459 223.137C193.459 222.601 193.585 222.135 193.836 221.737C194.091 221.339 194.458 221.033 194.936 220.82C195.419 220.602 195.994 220.493 196.661 220.493C197.267 220.493 197.787 220.578 198.223 220.749C198.663 220.92 199.004 221.149 199.245 221.438C199.491 221.727 199.638 222.054 199.685 222.419H198.706C198.635 222.068 198.424 221.796 198.074 221.602C197.728 221.403 197.257 221.303 196.661 221.303C196.065 221.303 195.601 221.405 195.27 221.609C194.943 221.813 194.723 222.052 194.609 222.327C194.496 222.601 194.439 222.874 194.439 223.144C194.439 223.409 194.5 223.682 194.624 223.961C194.751 224.236 194.986 224.475 195.326 224.679C195.667 224.883 196.14 224.984 196.746 224.984C197.177 224.984 197.539 224.956 197.832 224.899C198.126 224.838 198.436 224.736 198.762 224.594V223.783H196.597V223.03H199.685V224.984C199.155 225.273 198.665 225.477 198.216 225.596C197.771 225.714 197.279 225.773 196.739 225.773C196.067 225.773 195.483 225.667 194.986 225.454C194.493 225.236 194.115 224.93 193.85 224.537C193.589 224.139 193.459 223.672 193.459 223.137ZM211.063 223.13C211.063 222.301 211.333 221.654 211.872 221.19C212.412 220.725 213.209 220.493 214.265 220.493C214.875 220.493 215.398 220.578 215.834 220.749C216.269 220.92 216.605 221.152 216.842 221.445C217.083 221.734 217.23 222.066 217.282 222.44H216.302C216.236 222.08 216.028 221.801 215.678 221.602C215.332 221.403 214.861 221.303 214.265 221.303C212.784 221.303 212.043 221.912 212.043 223.13C212.043 223.755 212.235 224.217 212.618 224.515C213.001 224.814 213.55 224.963 214.265 224.963C214.857 224.963 215.325 224.861 215.671 224.658C216.021 224.454 216.231 224.172 216.302 223.812H217.289C217.237 224.186 217.09 224.523 216.849 224.821C216.608 225.115 216.269 225.347 215.834 225.517C215.398 225.688 214.875 225.773 214.265 225.773C213.209 225.773 212.412 225.541 211.872 225.077C211.333 224.608 211.063 223.959 211.063 223.13ZM226.816 223.449C227.062 223.487 227.249 223.585 227.377 223.741C227.505 223.897 227.569 224.103 227.569 224.359V225.631H226.667V224.579C226.667 224.404 226.648 224.274 226.61 224.189C226.572 224.099 226.504 224.037 226.404 224.004C226.31 223.966 226.165 223.947 225.971 223.947H222.883V225.631H221.974V220.635H225.702C226.312 220.635 226.785 220.758 227.121 221.005C227.462 221.246 227.633 221.625 227.633 222.142C227.633 222.786 227.36 223.222 226.816 223.449ZM222.883 221.438V223.151H225.467C225.709 223.151 225.907 223.137 226.064 223.108C226.225 223.08 226.364 223.004 226.482 222.881C226.601 222.753 226.66 222.556 226.66 222.291C226.66 222.031 226.601 221.839 226.482 221.715C226.364 221.588 226.225 221.509 226.064 221.481C225.907 221.453 225.709 221.438 225.467 221.438H222.883ZM237.701 220.635V221.431H233.356V222.739H237.559V223.528H233.356V224.842H237.701V225.631H232.447V220.635H237.701ZM249.244 225.631H248.215L247.597 224.551H243.969L243.352 225.631H242.315L245.205 220.635H246.355L249.244 225.631ZM245.78 221.389L244.417 223.769H247.143L245.78 221.389ZM258.075 220.635V221.445H255.477V225.631H254.576V221.445H251.97V220.635H258.075ZM262.701 220.635H263.61V225.631H262.701V220.635ZM271.501 225.773C270.436 225.773 269.633 225.539 269.094 225.07C268.554 224.601 268.285 223.954 268.285 223.13C268.285 222.305 268.554 221.661 269.094 221.197C269.633 220.728 270.436 220.493 271.501 220.493C272.561 220.493 273.361 220.728 273.9 221.197C274.44 221.661 274.709 222.305 274.709 223.13C274.709 223.954 274.44 224.601 273.9 225.07C273.361 225.539 272.561 225.773 271.501 225.773ZM271.501 224.963C272.991 224.963 273.737 224.352 273.737 223.13C273.737 221.912 272.991 221.303 271.501 221.303C270.772 221.303 270.216 221.45 269.832 221.744C269.454 222.038 269.264 222.5 269.264 223.13C269.264 224.352 270.01 224.963 271.501 224.963ZM284.693 224.764V220.635H285.602V225.631H284.303L280.299 221.502V225.631H279.39V220.635H280.689L284.693 224.764Z" fill="white"/>
</g>
<defs>
<clipPath id="clip0_164_40">
<rect width="289" height="228" fill="white"/>
</clipPath>
</defs>
</svg>
