<svg width="581" height="113" viewBox="0 0 581 113" fill="none" xmlns="http://www.w3.org/2000/svg">
<g clip-path="url(#clip0_81_507)">
<path d="M71.6371 0H41.9941V113H71.6371V0Z" fill="white"/>
<path d="M5.72205e-06 113H29.6429L29.6429 83.5218H5.72205e-06L5.72205e-06 113Z" fill="white"/>
<path d="M5.72205e-06 29.4782L29.6429 29.4782L29.6429 -3.05176e-05L5.72205e-06 -3.05176e-05L5.72205e-06 29.4782Z" fill="#FA3743"/>
<path d="M83.9729 29.4782L113.616 29.4782V-3.05176e-05L83.9729 -3.05176e-05V29.4782Z" fill="white"/>
<path d="M159.601 56.3529C159.601 59.2882 161.205 61.5004 164.413 62.9893C167.664 64.4357 173.267 65.1589 181.223 65.1589C187.639 65.1589 192.258 64.5846 195.081 63.436C197.904 62.2874 199.316 60.5645 199.316 58.2672C199.316 56.6081 198.802 55.3957 197.776 54.63C196.792 53.8217 194.953 53.2261 192.258 52.8432C189.606 52.4604 185.286 52.0775 179.298 51.6946C172.711 51.3117 167.514 50.6524 163.707 49.7165C159.9 48.7805 157.077 47.3767 155.238 45.5049C153.442 43.5905 152.543 40.9955 152.543 37.7198C152.543 33.0829 154.81 29.7646 159.344 27.7652C163.878 25.7658 170.401 24.7661 178.913 24.7661C187.467 24.7661 194.14 26.0423 198.931 28.5948C203.721 31.1472 206.138 34.9121 206.181 39.8894H197.391C197.391 37.9325 196.728 36.3798 195.402 35.2312C194.119 34.04 192.044 33.1679 189.178 32.6149C186.313 32.0619 182.527 31.7853 177.822 31.7853C173.545 31.7853 170.209 32.0193 167.813 32.4873C165.418 32.9552 163.728 33.6572 162.745 34.5931C161.804 35.4864 161.333 36.6563 161.333 38.1027C161.333 39.5917 161.825 40.7403 162.809 41.5485C163.793 42.3568 165.546 42.9949 168.07 43.4629C170.594 43.8883 174.443 44.2712 179.619 44.6115C186.847 45.122 192.301 45.6963 195.979 46.3344C199.701 46.93 202.652 48.1212 204.833 49.9079C207.015 51.6521 208.105 54.2896 208.105 57.8205C208.105 63.2233 205.732 66.9669 200.984 69.0514C196.279 71.1359 189.713 72.1782 181.287 72.1782C171.535 72.1782 164.071 70.987 158.895 68.6047C153.762 66.1799 151.046 62.0959 150.747 56.3529H159.601ZM269.991 26.0423V33.1892H230.725V44.9306H268.708V52.0137H230.725V63.8189H269.991V70.902H222.513V26.0423H269.991ZM283.222 48.4402C283.222 40.9955 285.66 35.1886 290.536 31.0196C295.412 26.8506 302.619 24.7661 312.157 24.7661C317.675 24.7661 322.402 25.5318 326.337 27.0633C330.272 28.5948 333.309 30.6793 335.447 33.3168C337.629 35.9118 338.955 38.8897 339.425 42.2505H330.571C329.972 39.0173 328.09 36.5074 324.925 34.7207C321.803 32.934 317.547 32.0406 312.157 32.0406C298.77 32.0406 292.076 37.5071 292.076 48.4402C292.076 54.0557 293.808 58.2034 297.272 60.8835C300.737 63.5636 305.699 64.9037 312.157 64.9037C317.504 64.9037 321.739 63.989 324.861 62.1597C328.026 60.3305 329.93 57.7993 330.571 54.5661H339.489C339.019 57.9269 337.693 60.9473 335.512 63.6274C333.33 66.265 330.272 68.3495 326.337 69.881C322.402 71.4125 317.675 72.1782 312.157 72.1782C302.619 72.1782 295.412 70.0937 290.536 65.9246C285.66 61.7131 283.222 55.8849 283.222 48.4402Z" fill="white"/>
<path d="M159.601 56.3529H160.938V55.0235H159.601V56.3529ZM164.413 62.9893L163.848 64.1942L163.857 64.1986L163.867 64.2026L164.413 62.9893ZM195.081 63.436L194.575 62.2054L195.081 63.436ZM197.776 54.63L196.925 55.6549L196.949 55.6749L196.974 55.6935L197.776 54.63ZM192.258 52.8432L192.066 54.1589L192.069 54.1594L192.258 52.8432ZM179.298 51.6946L179.384 50.3679H179.38L179.376 50.3674L179.298 51.6946ZM163.707 49.7165L164.028 48.426L163.707 49.7165ZM155.238 45.5049L154.261 46.412L154.272 46.4231L154.282 46.4341L155.238 45.5049ZM159.344 27.7652L158.802 26.5499L159.344 27.7652ZM198.931 28.5948L198.3 29.7666L198.931 28.5948ZM206.181 39.8894V41.2189H207.529L207.517 39.8781L206.181 39.8894ZM197.391 39.8894H196.054V41.2189H197.391V39.8894ZM195.402 35.2312L194.49 36.2031L194.507 36.2187L194.524 36.2337L195.402 35.2312ZM189.178 32.6149L188.924 33.92L189.178 32.6149ZM167.813 32.4873L167.556 31.1828L167.813 32.4873ZM162.745 34.5931L163.668 35.5547L163.669 35.5537L162.745 34.5931ZM162.809 41.5486L161.958 42.5735L162.809 41.5486ZM168.07 43.4629L167.825 44.7697L167.836 44.7719L167.847 44.7737L168.07 43.4629ZM179.619 44.6115L179.714 43.2854L179.71 43.2852L179.707 43.285L179.619 44.6115ZM195.979 46.3344L195.75 47.6439L195.758 47.6457L195.767 47.647L195.979 46.3344ZM204.833 49.9079L203.984 50.9342L203.99 50.9391L203.996 50.9439L204.833 49.9079ZM200.984 69.0514L200.444 67.835L200.44 67.8372L200.984 69.0514ZM158.895 68.6047L158.322 69.8056L158.328 69.8083L158.334 69.8114L158.895 68.6047ZM150.747 56.3529V55.0235H149.339L149.412 56.4216L150.747 56.3529ZM158.264 56.3529C158.264 58.0771 158.741 59.641 159.72 60.9912C160.689 62.3273 162.096 63.3806 163.848 64.1942L164.978 61.7844C163.523 61.1091 162.523 60.3119 161.888 59.4358C161.263 58.5739 160.938 57.564 160.938 56.3529H158.264ZM163.867 64.2026C167.399 65.7744 173.255 66.4883 181.223 66.4883V63.8295C173.279 63.8295 167.929 63.097 164.959 61.776L163.867 64.2026ZM181.223 66.4883C187.663 66.4883 192.507 65.9198 195.587 64.6666L194.575 62.2054C192.009 63.2494 187.615 63.8295 181.223 63.8295V66.4883ZM195.587 64.6666C197.134 64.0373 198.404 63.2073 199.293 62.1221C200.2 61.0151 200.652 59.7105 200.652 58.2672H197.979C197.979 59.1212 197.725 59.8266 197.221 60.4426C196.698 61.0803 195.852 61.686 194.575 62.2054L195.587 64.6666ZM200.652 58.2672C200.652 56.3272 200.038 54.6557 198.578 53.5664L196.974 55.6935C197.567 56.1357 197.979 56.8891 197.979 58.2672H200.652ZM198.627 53.605C197.336 52.5437 195.167 51.9135 192.447 51.5271L192.069 54.1594C194.739 54.5387 196.249 55.0997 196.925 55.6549L198.627 53.605ZM192.45 51.5276C189.741 51.1367 185.375 50.7512 179.384 50.3679L179.212 53.0214C185.197 53.4038 189.472 53.784 192.066 54.1589L192.45 51.5276ZM179.376 50.3674C172.824 49.9868 167.72 49.3336 164.028 48.426L163.387 51.0069C167.308 51.9711 172.599 52.6367 179.22 53.0218L179.376 50.3674ZM164.028 48.426C160.352 47.522 157.794 46.2042 156.194 44.5756L154.282 46.4341C156.361 48.5492 159.449 50.0391 163.387 51.0069L164.028 48.426ZM156.216 44.5978C154.704 42.9873 153.88 40.7471 153.88 37.7198H151.207C151.207 41.2439 152.179 44.1937 154.261 46.412L156.216 44.5978ZM153.88 37.7198C153.88 35.6251 154.389 33.9064 155.349 32.5006C156.314 31.0894 157.795 29.9027 159.886 28.9805L158.802 26.5499C156.36 27.6271 154.441 29.0993 153.138 31.0063C151.832 32.9187 151.207 35.1776 151.207 37.7198H153.88ZM159.886 28.9805C164.169 27.0919 170.473 26.0955 178.913 26.0955V23.4366C170.33 23.4366 163.588 24.4397 158.802 26.5499L159.886 28.9805ZM178.913 26.0955C187.361 26.0955 193.784 27.3604 198.3 29.7666L199.562 27.4229C194.497 24.7241 187.574 23.4366 178.913 23.4366V26.0955ZM198.3 29.7666C200.536 30.9578 202.148 32.394 203.21 34.0481C204.268 35.6967 204.825 37.6323 204.844 39.9008L207.517 39.8781C207.494 37.1692 206.821 34.7338 205.463 32.6174C204.108 30.5066 202.117 28.7841 199.562 27.4229L198.3 29.7666ZM206.181 38.56H197.391V41.2189H206.181V38.56ZM198.727 39.8894C198.727 37.5993 197.934 35.6616 196.28 34.2287L194.524 36.2337C195.522 37.098 196.054 38.2658 196.054 39.8894H198.727ZM196.314 34.2593C194.763 32.8194 192.399 31.8822 189.433 31.3098L188.924 33.92C191.69 34.4537 193.475 35.2607 194.49 36.2031L196.314 34.2593ZM189.433 31.3098C186.449 30.7339 182.568 30.4559 177.822 30.4559V33.1148C182.487 33.1148 186.177 33.3899 188.924 33.92L189.433 31.3098ZM177.822 30.4559C173.513 30.4559 170.076 30.6904 167.556 31.1828L168.071 33.7917C170.341 33.3483 173.577 33.1148 177.822 33.1148V30.4559ZM167.556 31.1828C165.082 31.6661 163.085 32.4303 161.821 33.6324L163.669 35.5537C164.373 34.8841 165.754 34.2444 168.071 33.7917L167.556 31.1828ZM161.822 33.6314C160.584 34.8065 159.997 36.3402 159.997 38.1027H162.67C162.67 36.9724 163.024 36.1664 163.668 35.5547L161.822 33.6314ZM159.997 38.1027C159.997 39.9118 160.612 41.4677 161.958 42.5735L163.66 40.5236C163.039 40.0128 162.67 39.2715 162.67 38.1027H159.997ZM161.958 42.5735C163.219 43.6094 165.262 44.2944 167.825 44.7697L168.315 42.156C165.831 41.6955 164.367 41.1043 163.66 40.5236L161.958 42.5735ZM167.847 44.7737C170.44 45.2106 174.346 45.5971 179.531 45.9378L179.707 43.285C174.541 42.9453 170.747 42.5658 168.294 42.1522L167.847 44.7737ZM179.524 45.9374C186.741 46.4474 192.14 47.0178 195.75 47.6439L196.209 45.025C192.462 44.3749 186.954 43.7968 179.714 43.2854L179.524 45.9374ZM195.767 47.647C199.33 48.2173 202.037 49.3393 203.984 50.9342L205.683 48.8816C203.267 46.903 200.072 45.6427 196.192 45.0219L195.767 47.647ZM203.996 50.9439C205.78 52.3704 206.769 54.5746 206.769 57.8205H209.442C209.442 54.0047 208.25 50.9338 205.671 48.8718L203.996 50.9439ZM206.769 57.8205C206.769 60.3265 206.22 62.3543 205.195 63.9713C204.172 65.5839 202.616 66.8814 200.444 67.8355L201.524 70.2674C204.099 69.1369 206.104 67.5204 207.456 65.3893C208.805 63.2627 209.442 60.7173 209.442 57.8205H206.769ZM200.44 67.8372C195.981 69.8123 189.631 70.8488 181.287 70.8488V73.5076C189.796 73.5076 196.577 72.4596 201.528 70.2656L200.44 67.8372ZM181.287 70.8488C171.61 70.8488 164.373 69.6616 159.457 67.3981L158.334 69.8114C163.768 72.3125 171.46 73.5076 181.287 73.5076V70.8488ZM159.469 67.4038C157.088 66.2792 155.328 64.8004 154.124 62.9897C152.918 61.1778 152.222 58.9603 152.082 56.2842L149.412 56.4216C149.572 59.4885 150.383 62.1846 151.894 64.4565C153.406 66.7298 155.57 68.5055 158.322 69.8056L159.469 67.4038ZM150.747 57.6823H159.601V55.0235H150.747V57.6823ZM269.991 26.0423H271.328V24.7129H269.991V26.0423ZM269.991 33.1892V34.5186H271.328V33.1892H269.991ZM230.725 33.1892V31.8598H229.389V33.1892H230.725ZM230.725 44.9306H229.389V46.26H230.725V44.9306ZM268.708 44.9306H270.044V43.6012H268.708V44.9306ZM268.708 52.0137V53.3431H270.044V52.0137H268.708ZM230.725 52.0137V50.6843H229.389V52.0137H230.725ZM230.725 63.8189H229.389V65.1483H230.725V63.8189ZM269.991 63.8189H271.328V62.4894H269.991V63.8189ZM269.991 70.902V72.2314H271.328V70.902H269.991ZM222.513 70.902H221.176V72.2314H222.513V70.902ZM222.513 26.0423V24.7129H221.176V26.0423H222.513ZM268.654 26.0423V33.1892H271.328V26.0423H268.654ZM269.991 31.8598H230.725V34.5186H269.991V31.8598ZM229.389 33.1892V44.9306H232.062V33.1892H229.389ZM230.725 46.26H268.708V43.6012H230.725V46.26ZM267.371 44.9306V52.0137H270.044V44.9306H267.371ZM268.708 50.6843H230.725V53.3431H268.708V50.6843ZM229.389 52.0137V63.8189H232.062V52.0137H229.389ZM230.725 65.1483H269.991V62.4894H230.725V65.1483ZM268.654 63.8189V70.902H271.328V63.8189H268.654ZM269.991 69.5726H222.513V72.2314H269.991V69.5726ZM223.849 70.902V26.0423H221.176V70.902H223.849ZM222.513 27.3717H269.991V24.7129H222.513V27.3717ZM290.536 31.0196L291.407 32.0277V32.0277L290.536 31.0196ZM335.447 33.3168L334.407 34.1514L334.414 34.1605L334.422 34.1696L335.447 33.3168ZM339.425 42.2505V43.5799H340.961L340.749 42.0672L339.425 42.2505ZM330.571 42.2505L329.256 42.4913L329.458 43.5799H330.571V42.2505ZM324.925 34.7207L324.259 35.873L324.262 35.8749L324.265 35.8769L324.925 34.7207ZM297.272 60.8835L296.452 61.9329L297.272 60.8835ZM324.861 62.1598L324.189 61.0103L324.186 61.0125L324.182 61.0142L324.861 62.1598ZM330.571 54.5662V53.2367H329.473L329.26 54.3087L330.571 54.5662ZM339.489 54.5662L340.813 54.7496L341.025 53.2367H339.489V54.5662ZM335.512 63.6274L336.544 64.472L336.547 64.4681L336.55 64.4641L335.512 63.6274ZM326.337 69.881L325.85 68.6428L326.337 69.881ZM290.536 65.9246L289.659 66.9284L289.662 66.9306L289.664 66.9328L290.536 65.9246ZM284.558 48.4402C284.558 41.3125 286.876 35.9017 291.407 32.0277L289.664 30.0115C284.443 34.4756 281.885 40.6785 281.885 48.4402H284.558ZM291.407 32.0277C295.947 28.1461 302.788 26.0955 312.157 26.0955V23.4366C302.449 23.4366 294.876 25.5551 289.664 30.0115L291.407 32.0277ZM312.157 26.0955C317.557 26.0955 322.109 26.8456 325.85 28.3013L326.824 25.8253C322.694 24.218 317.793 23.4366 312.157 23.4366V26.0955ZM325.85 28.3013C329.62 29.7685 332.445 31.7324 334.407 34.1514L336.488 32.4823C334.172 29.6262 330.924 27.421 326.824 25.8253L325.85 28.3013ZM334.422 34.1696C336.442 36.573 337.665 39.3187 338.101 42.4338L340.749 42.0672C340.244 38.4607 338.815 35.2507 336.473 32.4641L334.422 34.1696ZM339.425 40.9211H330.571V43.5799H339.425V40.9211ZM331.886 42.0096C331.207 38.3481 329.054 35.523 325.585 33.5645L324.265 35.8769C327.126 37.4918 328.737 39.6866 329.256 42.4913L331.886 42.0096ZM325.592 33.5684C322.19 31.6219 317.673 30.7112 312.157 30.7112V33.37C317.42 33.37 321.415 34.246 324.259 35.873L325.592 33.5684ZM312.157 30.7112C305.314 30.7112 299.934 32.1029 296.248 35.113C292.511 38.1644 290.739 42.6921 290.739 48.4402H293.412C293.412 43.2553 294.987 39.5832 297.944 37.168C300.952 34.7116 305.612 33.37 312.157 33.37V30.7112ZM290.739 48.4402C290.739 54.3375 292.572 58.9315 296.452 61.9329L298.093 59.8342C295.044 57.4753 293.412 53.7738 293.412 48.4402H290.739ZM296.452 61.9329C300.239 64.8624 305.536 66.2331 312.157 66.2331V63.5742C305.861 63.5742 301.235 62.2648 298.093 59.8342L296.452 61.9329ZM312.157 66.2331C317.637 66.2331 322.136 65.2989 325.539 63.3053L324.182 61.0142C321.341 62.6791 317.371 63.5742 312.157 63.5742V66.2331ZM325.533 63.3092C328.991 61.3103 331.158 58.4737 331.883 54.8236L329.26 54.3087C328.701 57.1248 327.061 59.3507 324.189 61.0103L325.533 63.3092ZM330.571 55.8956H339.489V53.2367H330.571V55.8956ZM338.165 54.3827C337.729 57.5002 336.504 60.2955 334.473 62.7908L336.55 64.4641C338.882 61.5992 340.309 58.3536 340.813 54.7496L338.165 54.3827ZM334.479 62.7828C332.472 65.209 329.62 67.1752 325.85 68.6428L326.824 71.1191C330.923 69.5238 334.187 67.321 336.544 64.472L334.479 62.7828ZM325.85 68.6428C322.109 70.0986 317.557 70.8488 312.157 70.8488V73.5076C317.793 73.5076 322.694 72.7264 326.824 71.1191L325.85 68.6428ZM312.157 70.8488C302.788 70.8488 295.947 68.7984 291.407 64.9165L289.664 66.9328C294.876 71.389 302.449 73.5076 312.157 73.5076V70.8488ZM291.412 64.9209C286.876 61.0032 284.558 55.5676 284.558 48.4402H281.885C281.885 56.2022 284.443 62.423 289.659 66.9284L291.412 64.9209ZM410.275 26.0423H411.611V24.7129H410.275V26.0423ZM410.275 33.3168V34.6462H411.611V33.3168H410.275ZM386.792 33.3168V31.9874H385.456V33.3168H386.792ZM386.792 70.902V72.2314H388.129V70.902H386.792ZM378.644 70.902H377.307V72.2314H378.644V70.902ZM378.644 33.3168H379.981V31.9874H378.644V33.3168ZM355.098 33.3168H353.761V34.6462H355.098V33.3168ZM355.098 26.0423V24.7129H353.761V26.0423H355.098ZM408.938 26.0423V33.3168H411.611V26.0423H408.938ZM410.275 31.9874H386.792V34.6462H410.275V31.9874ZM385.456 33.3168V70.902H388.129V33.3168H385.456ZM386.792 69.5726H378.644V72.2314H386.792V69.5726ZM379.981 70.902V33.3168H377.307V70.902H379.981ZM378.644 31.9874H355.098V34.6462H378.644V31.9874ZM356.434 33.3168V26.0423H353.761V33.3168H356.434ZM355.098 27.3717H410.275V24.7129H355.098V27.3717ZM424.169 26.0423V24.7129H422.833V26.0423H424.169ZM432.382 26.0423H433.718V24.7129H432.382V26.0423ZM432.382 70.902V72.2314H433.718V70.902H432.382ZM424.169 70.902H422.833V72.2314H424.169V70.902ZM424.169 27.3717H432.382V24.7129H424.169V27.3717ZM431.045 26.0423V70.902H433.718V26.0423H431.045ZM432.382 69.5726H424.169V72.2314H432.382V69.5726ZM425.506 70.902V26.0423H422.833V70.902H425.506ZM454.035 65.8608L454.909 64.8571L454.035 65.8608ZM454.035 31.0834L454.904 32.0915L454.909 32.0893V32.0872L454.035 31.0834ZM497.472 31.0834L496.595 32.0872V32.0893L496.599 32.0915L497.472 31.0834ZM497.472 65.8608L496.595 64.8571L497.472 65.8608ZM460.705 35.9969L459.895 34.9413L459.89 34.9437V34.9461L460.705 35.9969ZM475.783 70.8488C466.328 70.8488 459.449 68.7767 454.909 64.8571L453.158 66.8645C458.371 71.3681 465.99 73.5076 475.783 73.5076V70.8488ZM454.909 64.8571C450.373 60.9376 448.056 55.5224 448.056 48.4402H445.384C445.384 56.1623 447.945 62.3609 453.158 66.8645L454.909 64.8571ZM448.056 48.4402C448.056 41.3578 450.373 35.967 454.904 32.0915L453.162 30.0753C447.945 34.5379 445.384 40.7183 445.384 48.4402H448.056ZM454.909 32.0872C459.449 28.1677 466.328 26.0955 475.783 26.0955V23.4366C465.99 23.4366 458.371 25.576 453.158 30.0797L454.909 32.0872ZM475.783 26.0955C485.193 26.0955 492.055 28.1669 496.595 32.0872L498.346 30.0797C493.133 25.5768 485.536 23.4366 475.783 23.4366V26.0955ZM496.599 32.0915C501.13 35.967 503.447 41.3578 503.447 48.4402H506.121C506.121 40.7183 503.563 34.5379 498.341 30.0753L496.599 32.0915ZM503.447 48.4402C503.447 55.5224 501.13 60.9376 496.595 64.8571L498.346 66.8645C503.563 62.3609 506.121 56.1623 506.121 48.4402H503.447ZM496.595 64.8571C492.055 68.7776 485.193 70.8488 475.783 70.8488V73.5076C485.536 73.5076 493.133 71.3673 498.346 66.8645L496.595 64.8571ZM475.783 66.2331C482.671 66.2331 488.08 64.8363 491.787 61.8163C495.548 58.7547 497.33 54.2108 497.33 48.4402H494.657C494.657 53.6453 493.075 57.3331 490.094 59.7593C487.064 62.2271 482.373 63.5742 475.783 63.5742V66.2331ZM497.33 48.4402C497.33 42.6892 495.548 38.1608 491.787 35.1104C488.08 32.1023 482.667 30.7112 475.783 30.7112V33.37C482.373 33.37 487.069 34.7122 490.099 37.1706C493.075 39.5867 494.657 43.2582 494.657 48.4402H497.33ZM475.783 30.7112C469.046 30.7112 463.686 32.056 459.895 34.9413L461.521 37.0526C464.658 34.6627 469.349 33.37 475.783 33.37V30.7112ZM459.89 34.9461C456.045 37.9103 454.236 42.5111 454.236 48.4402H456.909C456.909 43.0534 458.527 39.3587 461.525 37.0477L459.89 34.9461ZM454.236 48.4402C454.236 54.2108 456.023 58.7547 459.779 61.8163C463.486 64.8363 468.899 66.2331 475.783 66.2331V63.5742C469.198 63.5742 464.502 62.2271 461.472 59.7593C458.496 57.3331 456.909 53.6453 456.909 48.4402H454.236ZM567.103 63.1169L566.145 64.0431L568.44 66.3948V63.1169H567.103ZM567.103 26.0423V24.7129H565.767V26.0423H567.103ZM575.315 26.0423H576.651V24.7129H575.315V26.0423ZM575.315 70.902V72.2314H576.651V70.902H575.315ZM563.575 70.902L562.617 71.8281L563.009 72.2314H563.575V70.902ZM527.387 33.8273L528.349 32.9013L526.05 30.5492V33.8273H527.387ZM527.387 70.902V72.2314H528.723V70.902H527.387ZM519.175 70.902H517.839V72.2314H519.175V70.902ZM519.175 26.0423V24.7129H517.839V26.0423H519.175ZM530.916 26.0423L531.878 25.1163L531.481 24.7129H530.916V26.0423ZM568.44 63.1169V26.0423H565.767V63.1169H568.44ZM567.103 27.3717H575.315V24.7129H567.103V27.3717ZM573.978 26.0423V70.902H576.651V26.0423H573.978ZM575.315 69.5726H563.575V72.2314H575.315V69.5726ZM564.533 69.9758L528.349 32.9013L526.429 34.7533L562.617 71.8281L564.533 69.9758ZM526.05 33.8273V70.902H528.723V33.8273H526.05ZM527.387 69.5726H519.175V72.2314H527.387V69.5726ZM520.512 70.902V26.0423H517.839V70.902H520.512ZM519.175 27.3717H530.916V24.7129H519.175V27.3717ZM529.958 26.9683L566.145 64.0431L568.061 62.1908L531.878 25.1163L529.958 26.9683Z" fill="white"/>
<path d="M152.185 93.7359C152.185 94.2251 152.452 94.5938 152.987 94.842C153.528 95.083 154.462 95.2036 155.788 95.2036C156.857 95.2036 157.627 95.1079 158.098 94.9164C158.568 94.725 158.804 94.4378 158.804 94.055C158.804 93.7785 158.718 93.5764 158.547 93.4488C158.383 93.314 158.077 93.2148 157.627 93.151C157.185 93.0872 156.465 93.0233 155.467 92.9595C154.37 92.8957 153.503 92.7858 152.869 92.6298C152.234 92.4739 151.764 92.2399 151.457 91.9279C151.158 91.6088 151.008 91.1763 151.008 90.6304C151.008 89.8576 151.386 89.3045 152.142 88.9713C152.897 88.6381 153.985 88.4714 155.403 88.4714C156.829 88.4714 157.941 88.6841 158.739 89.1096C159.538 89.535 159.941 90.1624 159.948 90.992H158.483C158.483 90.6659 158.372 90.4071 158.151 90.2156C157.937 90.0171 157.592 89.8718 157.114 89.7796C156.636 89.6874 156.006 89.6413 155.221 89.6413C154.509 89.6413 153.952 89.6803 153.553 89.7583C153.154 89.8363 152.872 89.9533 152.708 90.1093C152.552 90.2582 152.473 90.4531 152.473 90.6942C152.473 90.9424 152.555 91.1338 152.719 91.2685C152.883 91.4032 153.175 91.5096 153.596 91.5876C154.017 91.6585 154.658 91.7223 155.521 91.779C156.726 91.8641 157.635 91.9598 158.248 92.0662C158.868 92.1654 159.36 92.364 159.723 92.6617C160.087 92.9524 160.269 93.392 160.269 93.9805C160.269 94.881 159.873 95.5049 159.082 95.8523C158.298 96.1998 157.203 96.3735 155.799 96.3735C154.173 96.3735 152.929 96.1749 152.067 95.7779C151.211 95.3737 150.759 94.6931 150.709 93.7359H152.185ZM171.85 96.3735C170.246 96.3735 169.038 96.0225 168.225 95.3206C167.412 94.6186 167.006 93.6508 167.006 92.4171C167.006 91.1834 167.412 90.2192 168.225 89.5243C169.038 88.8224 170.246 88.4714 171.85 88.4714C173.447 88.4714 174.651 88.8224 175.464 89.5243C176.277 90.2192 176.683 91.1834 176.683 92.4171C176.683 93.6508 176.277 94.6186 175.464 95.3206C174.651 96.0225 173.447 96.3735 171.85 96.3735ZM171.85 95.161C174.095 95.161 175.218 94.2464 175.218 92.4171C175.218 90.595 174.095 89.6839 171.85 89.6839C170.752 89.6839 169.914 89.9037 169.337 90.3432C168.767 90.7828 168.481 91.4741 168.481 92.4171C168.481 94.2464 169.604 95.161 171.85 95.161ZM191.646 88.6841V89.8966H185.102V92.4065H191.005V93.6189H185.102V96.1608H183.733V88.6841H191.646ZM207.73 88.6841V89.8966H203.816V96.1608H202.458V89.8966H198.534V88.6841H207.73ZM226.035 94.9483L228.794 88.6841H230.259L226.922 96.1608H225.137L222.367 89.6626L219.426 96.1608H217.63L214.486 88.6841H215.951L218.539 94.9483L221.362 88.6841H223.394L226.035 94.9483ZM244.843 96.1608H243.293L242.362 94.5442H236.898L235.968 96.1608H234.407L238.759 88.6841H240.491L244.843 96.1608ZM239.625 89.8115L237.572 93.3743H241.678L239.625 89.8115ZM258.897 92.8957C259.268 92.9524 259.549 93.0978 259.742 93.3318C259.934 93.5657 260.03 93.8742 260.03 94.257V96.1608H258.672V94.5867C258.672 94.3244 258.644 94.1294 258.587 94.0018C258.53 93.8671 258.426 93.7749 258.277 93.7253C258.134 93.6686 257.917 93.6402 257.624 93.6402H252.973V96.1608H251.604V88.6841H257.218C258.138 88.6841 258.851 88.8685 259.357 89.2372C259.87 89.5988 260.127 90.166 260.127 90.9388C260.127 91.9031 259.717 92.5554 258.897 92.8957ZM252.973 89.8859V92.449H256.865C257.229 92.449 257.528 92.4278 257.763 92.3852C258.006 92.3427 258.216 92.2292 258.394 92.0449C258.573 91.8535 258.662 91.5592 258.662 91.1622C258.662 90.7722 258.573 90.4851 258.394 90.3007C258.216 90.1093 258.006 89.9923 257.763 89.9497C257.528 89.9072 257.229 89.8859 256.865 89.8859H252.973ZM275.291 88.6841V89.8753H268.747V91.8322H275.078V93.0127H268.747V94.9802H275.291V96.1608H267.378V88.6841H275.291ZM300.46 88.6841V89.8753H293.916V91.8322H300.246V93.0127H293.916V94.9802H300.46V96.1608H292.547V88.6841H300.46ZM315.621 94.8633V88.6841H316.989V96.1608H315.032L309.001 89.9816V96.1608H307.633V88.6841H309.59L315.621 94.8633ZM324.031 92.4278C324.031 91.6266 324.22 90.9282 324.598 90.3326C324.983 89.737 325.535 89.2797 326.255 88.9607C326.983 88.6345 327.849 88.4714 328.854 88.4714C329.766 88.4714 330.551 88.5991 331.206 88.8543C331.869 89.1096 332.383 89.4534 332.746 89.8859C333.117 90.3184 333.338 90.8077 333.409 91.3536H331.934C331.827 90.8289 331.509 90.4212 330.982 90.1305C330.461 89.8328 329.752 89.6839 328.854 89.6839C327.956 89.6839 327.257 89.8363 326.758 90.1412C326.266 90.4461 325.935 90.8041 325.764 91.2153C325.592 91.6266 325.507 92.0343 325.507 92.4384C325.507 92.8355 325.6 93.2431 325.785 93.6615C325.977 94.0727 326.33 94.4307 326.844 94.7356C327.357 95.0405 328.07 95.1929 328.982 95.1929C329.631 95.1929 330.176 95.1504 330.618 95.0653C331.06 94.9731 331.527 94.8207 332.019 94.608V93.3956H328.758V92.2682H333.409V95.1929C332.611 95.6254 331.873 95.9303 331.196 96.1076C330.526 96.2848 329.784 96.3735 328.972 96.3735C327.959 96.3735 327.079 96.2139 326.33 95.8949C325.589 95.5687 325.019 95.1114 324.619 94.5229C324.227 93.9273 324.031 93.229 324.031 92.4278ZM340.581 88.6841H341.95V96.1608H340.581V88.6841ZM357.295 94.8633V88.6841H358.664V96.1608H356.707L350.676 89.9816V96.1608H349.307V88.6841H351.264L357.295 94.8633ZM373.935 88.6841V89.8753H367.391V91.8322H373.721V93.0127H367.391V94.9802H373.935V96.1608H366.022V88.6841H373.935ZM389.02 88.6841V89.8753H382.476V91.8322H388.806V93.0127H382.476V94.9802H389.02V96.1608H381.107V88.6841H389.02ZM403.485 92.8957C403.856 92.9524 404.138 93.0978 404.33 93.3318C404.523 93.5657 404.619 93.8742 404.619 94.257V96.1608H403.261V94.5867C403.261 94.3244 403.232 94.1294 403.175 94.0018C403.118 93.8671 403.015 93.7749 402.865 93.7253C402.722 93.6686 402.505 93.6402 402.213 93.6402H397.561V96.1608H396.192V88.6841H401.806C402.726 88.6841 403.439 88.8685 403.945 89.2372C404.458 89.5988 404.715 90.166 404.715 90.9388C404.715 91.9031 404.305 92.5554 403.485 92.8957ZM397.561 89.8859V92.449H401.454C401.817 92.449 402.117 92.4278 402.352 92.3852C402.594 92.3427 402.804 92.2292 402.983 92.0449C403.161 91.8535 403.25 91.5592 403.25 91.1622C403.25 90.7722 403.161 90.4851 402.983 90.3007C402.804 90.1093 402.594 89.9923 402.352 89.9497C402.117 89.9072 401.817 89.8859 401.454 89.8859H397.561ZM411.967 88.6841H413.336V96.1608H411.967V88.6841ZM428.681 94.8633V88.6841H430.049V96.1608H428.093L422.062 89.9816V96.1608H420.693V88.6841H422.65L428.681 94.8633ZM437.092 92.4278C437.092 91.6266 437.281 90.9282 437.659 90.3326C438.044 89.737 438.596 89.2797 439.316 88.9607C440.043 88.6345 440.909 88.4714 441.915 88.4714C442.827 88.4714 443.611 88.5991 444.267 88.8543C444.93 89.1096 445.443 89.4534 445.806 89.8859C446.176 90.3184 446.399 90.8077 446.47 91.3536H444.994C444.887 90.8289 444.57 90.4212 444.043 90.1305C443.522 89.8328 442.813 89.6839 441.915 89.6839C441.016 89.6839 440.318 89.8363 439.819 90.1412C439.327 90.4461 438.995 90.8041 438.824 91.2153C438.653 91.6266 438.568 92.0343 438.568 92.4384C438.568 92.8355 438.66 93.2431 438.846 93.6615C439.038 94.0727 439.391 94.4307 439.904 94.7356C440.418 95.0405 441.13 95.1929 442.043 95.1929C442.692 95.1929 443.237 95.1504 443.679 95.0653C444.121 94.9731 444.588 94.8207 445.08 94.608V93.3956H441.818V92.2682H446.47V95.1929C445.672 95.6254 444.934 95.9303 444.256 96.1076C443.586 96.2848 442.845 96.3735 442.032 96.3735C441.02 96.3735 440.139 96.2139 439.391 95.8949C438.65 95.5687 438.079 95.1114 437.68 94.5229C437.288 93.9273 437.092 93.229 437.092 92.4278ZM463.606 92.4171C463.606 91.1763 464.016 90.2085 464.827 89.5137C465.638 88.8189 466.841 88.4714 468.431 88.4714C469.349 88.4714 470.138 88.5991 470.793 88.8543C471.448 89.1096 471.956 89.457 472.312 89.8966C472.677 90.3291 472.896 90.8254 472.976 91.3855H471.501C471.399 90.8467 471.087 90.4283 470.556 90.1305C470.04 89.8328 469.327 89.6839 468.431 89.6839C466.199 89.6839 465.085 90.595 465.085 92.4171C465.085 93.353 465.37 94.0443 465.949 94.491C466.529 94.9377 467.353 95.161 468.431 95.161C469.322 95.161 470.026 95.0086 470.548 94.7037C471.073 94.3988 471.394 93.977 471.501 93.4381H472.985C472.909 93.9982 472.686 94.5017 472.321 94.9483C471.96 95.3879 471.448 95.7353 470.793 95.9906C470.138 96.2458 469.349 96.3735 468.431 96.3735C466.841 96.3735 465.638 96.026 464.827 95.3312C464.016 94.6293 463.606 93.6579 463.606 92.4171ZM487.336 92.8957C487.706 92.9524 487.986 93.0978 488.178 93.3318C488.374 93.5657 488.468 93.8742 488.468 94.257V96.1608H487.109V94.5867C487.109 94.3244 487.082 94.1294 487.024 94.0018C486.966 93.8671 486.864 93.7749 486.717 93.7253C486.574 93.6686 486.356 93.6402 486.062 93.6402H481.41V96.1608H480.042V88.6841H485.656C486.574 88.6841 487.287 88.8685 487.795 89.2372C488.307 89.5988 488.566 90.166 488.566 90.9388C488.566 91.9031 488.156 92.5554 487.336 92.8957ZM481.41 89.8859V92.449H485.304C485.665 92.449 485.968 92.4278 486.2 92.3852C486.445 92.3427 486.654 92.2292 486.832 92.0449C487.011 91.8535 487.1 91.5592 487.1 91.1622C487.1 90.7722 487.011 90.4851 486.832 90.3007C486.654 90.1093 486.445 89.9923 486.2 89.9497C485.968 89.9072 485.665 89.8859 485.304 89.8859H481.41ZM503.732 88.6841V89.8753H497.187V91.8322H503.518V93.0127H497.187V94.9802H503.732V96.1608H495.819V88.6841H503.732ZM521.118 96.1608H519.567L518.636 94.5442H513.173L512.242 96.1608H510.683L515.031 88.6841H516.765L521.118 96.1608ZM515.9 89.8115L513.846 93.3743H517.954L515.9 89.8115ZM534.417 88.6841V89.8966H530.505V96.1608H529.147V89.8966H525.221V88.6841H534.417ZM541.386 88.6841H542.754V96.1608H541.386V88.6841ZM554.641 96.3735C553.037 96.3735 551.83 96.0225 551.014 95.3206C550.203 94.6186 549.798 93.6508 549.798 92.4171C549.798 91.1834 550.203 90.2192 551.014 89.5243C551.83 88.8224 553.037 88.4714 554.641 88.4714C556.236 88.4714 557.444 88.8224 558.254 89.5243C559.07 90.2192 559.475 91.1834 559.475 92.4171C559.475 93.6508 559.07 94.6186 558.254 95.3206C557.444 96.0225 556.236 96.3735 554.641 96.3735ZM554.641 95.161C556.887 95.161 558.009 94.2464 558.009 92.4171C558.009 90.595 556.887 89.6839 554.641 89.6839C553.545 89.6839 552.707 89.9037 552.128 90.3432C551.558 90.7828 551.273 91.4741 551.273 92.4171C551.273 94.2464 552.395 95.161 554.641 95.161ZM574.513 94.8633V88.6841H575.88V96.1608H573.925L567.892 89.9816V96.1608H566.524V88.6841H568.48L574.513 94.8633Z" fill="white"/>
</g>
<defs>
<clipPath id="clip0_81_507">
<rect width="581" height="113" fill="white"/>
</clipPath>
</defs>
</svg>
